<svg width="122" height="122" viewBox="0 0 122 122" fill="none" xmlns="http://www.w3.org/2000/svg">
<path fill-rule="evenodd" clip-rule="evenodd" d="M80.2472 0.844238H42.1158C19.4297 0.844238 0.974121 19.2998 0.974121 41.986C0.974121 64.4634 19.0925 82.7865 41.4897 83.1237V118.249C41.4897 119.505 42.2643 120.625 43.4403 121.066C43.7855 121.195 44.1428 121.259 44.5 121.259C45.351 121.259 46.1818 120.898 46.7638 120.231L79.2277 83.1277H80.2472C102.933 83.1277 121.389 64.6721 121.389 41.986C121.389 19.2998 102.933 0.844238 80.2472 0.844238ZM80.2472 77.1069H77.863C76.996 77.1069 76.1692 77.4802 75.5992 78.1345L47.5104 110.237V80.1173C47.5104 78.4556 46.1618 77.1069 44.5 77.1069H42.1158C22.7491 77.1069 6.99486 61.3527 6.99486 41.986C6.99486 22.6192 22.7491 6.86498 42.1158 6.86498H80.2472C99.6139 6.86498 115.368 22.6192 115.368 41.986C115.368 61.3527 99.6139 77.1069 80.2472 77.1069ZM61.1815 19.9099C54.2657 19.9099 48.6383 24.7466 48.6383 30.6911C48.6383 32.3528 49.987 33.7014 51.6487 33.7014C53.3104 33.7014 54.659 32.3528 54.659 30.6911C54.659 28.1102 57.6453 25.9307 61.1815 25.9307C64.7177 25.9307 67.704 28.1102 67.704 30.6911C67.704 32.1762 66.7046 33.6051 65.0308 34.5162C60.7962 36.8202 58.1711 41.5083 58.1711 46.7544C58.1711 48.4161 59.5198 49.7648 61.1815 49.7648C62.8432 49.7648 64.1919 48.4161 64.1919 46.7544C64.1919 43.7601 65.6489 41.0347 67.9087 39.8065C71.5492 37.8236 73.7247 34.4159 73.7247 30.6951C73.7247 24.7506 68.0973 19.9139 61.1815 19.9139V19.9099ZM62.3456 58.2782C62.7068 58.4387 63.0279 58.6394 63.3088 58.9204C63.5858 59.2014 63.8306 59.5225 63.947 59.8837C64.1076 60.245 64.1919 60.6463 64.1919 61.0477C64.1919 61.8505 63.8708 62.6131 63.3088 63.175C63.0279 63.456 62.7068 63.6968 62.3456 63.8173C61.9843 63.9778 61.5829 64.0581 61.1815 64.0581C60.7761 64.0581 60.4189 63.9778 60.0175 63.8173C59.6562 63.6968 59.3352 63.456 59.0542 63.175C58.7732 62.8941 58.5725 62.573 58.412 62.2117C58.2514 61.8505 58.1712 61.4491 58.1712 61.0477C58.1712 60.6463 58.2514 60.2851 58.412 59.8837C58.5725 59.5225 58.7732 59.2014 59.0542 58.9204C59.3352 58.6394 59.6562 58.4387 60.0175 58.2782C60.7761 57.9571 61.5829 57.9571 62.3456 58.2782Z" fill="white"/>
</svg>
