<svg width="121" height="122" viewBox="0 0 121 122" fill="none" xmlns="http://www.w3.org/2000/svg">
<path fill-rule="evenodd" clip-rule="evenodd" d="M79.776 0.844238H41.6446C18.9585 0.844238 0.50293 19.2998 0.50293 41.986C0.50293 64.4634 18.6213 82.7865 41.0185 83.1237V118.249C41.0185 119.501 41.7972 120.625 42.9692 121.066C43.3144 121.195 43.6716 121.259 44.0289 121.259C44.8798 121.259 45.7107 120.898 46.2927 120.231L78.7565 83.1277H79.772C102.458 83.1277 120.914 64.6721 120.914 41.986C120.914 19.2998 102.462 0.844238 79.776 0.844238ZM79.776 77.1069H77.3918C76.5248 77.1069 75.698 77.4802 75.128 78.1345L47.0392 110.237V80.1173C47.0392 78.4556 45.6906 77.1069 44.0289 77.1069H41.6446C22.2779 77.1069 6.52367 61.3527 6.52367 41.986C6.52367 22.6192 22.2779 6.86498 41.6446 6.86498H79.776C99.1427 6.86498 114.897 22.6192 114.897 41.986C114.897 61.3527 99.1427 77.1069 79.776 77.1069ZM35.0057 51.7718H28.7281L36.4547 40.3083C38.3372 37.5147 38.5259 33.9344 36.9444 30.9561C35.379 28.014 32.3486 26.1837 29.0332 26.1837C24.0841 26.1837 20.0582 30.2417 20.0582 35.2268C20.0582 36.8886 21.4069 38.2372 23.0686 38.2372C24.7303 38.2372 26.079 36.8886 26.079 35.2268C26.079 33.5651 27.4035 32.2044 29.0332 32.2044C30.6226 32.2044 31.3772 33.3082 31.6301 33.7819C32.172 34.8014 32.1118 35.9814 31.4655 36.9408L20.572 53.1004C19.9499 54.0236 19.8897 55.2157 20.4115 56.1951C20.9333 57.1785 21.9568 57.7926 23.0686 57.7926H35.0098C36.6715 57.7926 38.0201 56.4439 38.0201 54.7822C38.0201 53.1205 36.6715 51.7718 35.0098 51.7718H35.0057ZM86.4109 26.1793H98.348C99.3796 26.1793 100.335 26.7011 100.889 27.5721C101.443 28.4431 101.511 29.5309 101.077 30.4621L89.1363 56.0502C88.6265 57.146 87.5388 57.7882 86.4069 57.7882C85.9814 57.7882 85.552 57.6999 85.1385 57.5073C83.6293 56.8008 82.9791 55.0107 83.6815 53.5055L93.6238 32.2001H86.4109C84.7492 32.2001 83.4005 30.8514 83.4005 29.1897C83.4005 27.528 84.7492 26.1793 86.4109 26.1793ZM56.7808 29.1941V43.5675C57.776 44.0586 58.4787 45.0599 58.4787 46.2488C58.4787 47.4409 57.7722 48.4444 56.7728 48.9341V54.7782C56.7728 56.4399 55.4241 57.7886 53.7624 57.7886C52.1007 57.7886 50.7521 56.4399 50.7521 54.7782V49.2592H43.5272C42.4434 49.2592 41.44 48.6772 40.9061 47.7339C40.3723 46.7907 40.3884 45.6307 40.9463 44.7035L51.1815 27.6447C51.2183 27.5851 51.2668 27.5398 51.3151 27.4948C51.3513 27.461 51.3874 27.4274 51.4184 27.3878C51.5468 27.2193 51.6752 27.0667 51.8358 26.9303C51.9843 26.8018 52.1408 26.7055 52.3054 26.6132C52.474 26.5168 52.6385 26.4366 52.8232 26.3723C53.0199 26.3081 53.2165 26.276 53.4212 26.2519C53.4718 26.2467 53.5202 26.2331 53.5688 26.2194C53.6322 26.2017 53.6961 26.1837 53.7664 26.1837C53.8045 26.1837 53.8392 26.1937 53.8741 26.2038C53.9054 26.2128 53.9369 26.2219 53.9711 26.2238C54.1718 26.2399 54.3605 26.2881 54.5572 26.3442L54.5802 26.3508C54.7686 26.4046 54.9495 26.4562 55.1231 26.5449C55.1516 26.5601 55.1828 26.5681 55.2141 26.5762C55.249 26.5851 55.284 26.5941 55.3158 26.6132C55.3759 26.6502 55.4227 26.6992 55.4692 26.7478C55.5034 26.7837 55.5375 26.8194 55.5767 26.85C55.7412 26.9784 55.8938 27.1069 56.0302 27.2634C56.1587 27.4119 56.255 27.5685 56.3513 27.737C56.4437 27.9016 56.5279 28.0662 56.5882 28.2468C56.6564 28.4435 56.6885 28.6442 56.7126 28.8529C56.7179 28.904 56.7317 28.9528 56.7455 29.0017L56.7455 29.0017C56.7631 29.0641 56.7808 29.1265 56.7808 29.1941ZM48.8495 43.2425L50.7601 40.0595V43.2425H48.8495ZM75.8745 23.6908C76.5569 22.1776 78.3471 21.5032 79.8563 22.1816C81.3695 22.8639 82.0478 24.6501 81.3655 26.1633L66.0126 60.2808C65.5108 61.3926 64.4111 62.0549 63.2631 62.0549C62.8497 62.0549 62.4323 61.9706 62.0309 61.79C60.5177 61.1077 59.8393 59.3215 60.5217 57.8083L75.8745 23.6908Z" fill="white"/>
</svg>
